<svg width="22" height="14" viewBox="0 0 22 14" fill="none" xmlns="http://www.w3.org/2000/svg">
<path d="M20.4202 0.467643C20.2348 0.466702 20.051 0.505571 19.8797 0.581973C19.7084 0.658374 19.5531 0.770768 19.4228 0.912558L11.0105 9.95241L2.59826 0.973228C2.33299 0.788404 2.01765 0.704637 1.7028 0.735351C1.38794 0.766066 1.0918 0.909483 0.861833 1.14262C0.631867 1.37575 0.481396 1.6851 0.434537 2.02108C0.387678 2.35707 0.447145 2.70023 0.603405 2.99557L10.0131 13.1073C10.2777 13.3913 10.6365 13.5508 11.0105 13.5508C11.3846 13.5508 11.7433 13.3913 12.0079 13.1073L21.4176 2.99557C21.682 2.71117 21.8304 2.32567 21.8304 1.92373C21.8304 1.52179 21.682 1.13628 21.4176 0.851886C21.1453 0.587581 20.7868 0.449493 20.4202 0.467643Z" fill="#9C9C9C"/>
</svg>
