<svg width="28" height="28" viewBox="0 0 28 28" fill="none" xmlns="http://www.w3.org/2000/svg">
<path id="Cancel" fill-rule="evenodd" clip-rule="evenodd" d="M27.1315 3.36482C27.2954 3.20112 27.4255 3.00673 27.5142 2.79276C27.603 2.57879 27.6488 2.34943 27.6489 2.11777C27.6491 1.88612 27.6036 1.6567 27.5151 1.44262C27.4265 1.22854 27.2967 1.034 27.133 0.870089C26.9693 0.706182 26.7749 0.576124 26.561 0.487341C26.347 0.398558 26.1176 0.352789 25.886 0.352647C25.6543 0.352504 25.4249 0.397992 25.2108 0.486512C24.9967 0.575032 24.8022 0.70485 24.6383 0.868556L14 11.5068L3.36482 0.868556C3.0338 0.53753 2.58483 0.351562 2.11669 0.351562C1.64855 0.351563 1.19958 0.53753 0.868556 0.868556C0.53753 1.19958 0.351563 1.64855 0.351562 2.11669C0.351562 2.58483 0.53753 3.0338 0.868556 3.36482L11.5068 14L0.868556 24.6352C0.704649 24.7991 0.57463 24.9937 0.485925 25.2079C0.397219 25.422 0.351562 25.6516 0.351562 25.8834C0.351562 26.1152 0.397219 26.3447 0.485925 26.5588C0.57463 26.773 0.704649 26.9676 0.868556 27.1315C1.19958 27.4625 1.64855 27.6485 2.11669 27.6485C2.34849 27.6485 2.57802 27.6028 2.79217 27.5141C3.00633 27.4254 3.20092 27.2954 3.36482 27.1315L14 16.4932L24.6383 27.1315C24.9693 27.4621 25.4181 27.6477 25.886 27.6474C26.3538 27.6471 26.8024 27.461 27.133 27.13C27.4636 26.7989 27.6492 26.3501 27.6489 25.8823C27.6486 25.4144 27.4625 24.9658 27.1315 24.6352L16.4932 14L27.1315 3.36482Z" fill="#9C9C9C"/>
</svg>
