<svg width="25" height="18" viewBox="0 0 25 18" fill="none" xmlns="http://www.w3.org/2000/svg">
<path d="M23.9026 0.477405C24.0539 0.628353 24.1739 0.807674 24.2559 1.0051C24.3378 1.20252 24.38 1.41416 24.38 1.6279C24.38 1.84165 24.3378 2.05329 24.2559 2.25071C24.1739 2.44814 24.0539 2.62746 23.9026 2.77841L9.27755 17.4034C9.1266 17.5547 8.94728 17.6748 8.74986 17.7567C8.55244 17.8386 8.3408 17.8808 8.12705 17.8808C7.91331 17.8808 7.70166 17.8386 7.50424 17.7567C7.30682 17.6748 7.1275 17.5547 6.97655 17.4034L0.476552 10.9034C0.171421 10.5983 0 10.1844 0 9.7529C0 9.32138 0.171421 8.90754 0.476552 8.6024C0.781684 8.29727 1.19553 8.12585 1.62705 8.12585C2.05857 8.12585 2.47242 8.29727 2.77755 8.6024L8.12705 13.9552L21.6016 0.477405C21.7525 0.326074 21.9318 0.20601 22.1292 0.124089C22.3267 0.0421683 22.5383 0 22.7521 0C22.9658 0 23.1774 0.0421683 23.3749 0.124089C23.5723 0.20601 23.7516 0.326074 23.9026 0.477405Z" fill="#9C9C9C"/>
</svg>
