<svg width="31" height="34" viewBox="0 0 31 34" fill="none" xmlns="http://www.w3.org/2000/svg">
<path d="M29.2778 6.8H22.3889V5.1C22.3889 3.7474 21.8445 2.45019 20.8756 1.49376C19.9067 0.53732 18.5925 0 17.2222 0H13.7778C12.4075 0 11.0933 0.53732 10.1244 1.49376C9.15545 2.45019 8.61111 3.7474 8.61111 5.1V6.8H1.72222C1.26546 6.8 0.827406 6.97911 0.504427 7.29792C0.181448 7.61673 0 8.04913 0 8.5C0 8.95087 0.181448 9.38327 0.504427 9.70208C0.827406 10.0209 1.26546 10.2 1.72222 10.2H3.44444V28.9C3.44444 30.2526 3.98879 31.5498 4.95773 32.5062C5.92666 33.4627 7.24083 34 8.61111 34H22.3889C23.7592 34 25.0733 33.4627 26.0423 32.5062C27.0112 31.5498 27.5556 30.2526 27.5556 28.9V10.2H29.2778C29.7345 10.2 30.1726 10.0209 30.4956 9.70208C30.8186 9.38327 31 8.95087 31 8.5C31 8.04913 30.8186 7.61673 30.4956 7.29792C30.1726 6.97911 29.7345 6.8 29.2778 6.8ZM12.0556 5.1C12.0556 4.64913 12.237 4.21673 12.56 3.89792C12.883 3.57911 13.321 3.4 13.7778 3.4H17.2222C17.679 3.4 18.117 3.57911 18.44 3.89792C18.763 4.21673 18.9444 4.64913 18.9444 5.1V6.8H12.0556V5.1ZM24.1111 28.9C24.1111 29.3509 23.9297 29.7833 23.6067 30.1021C23.2837 30.4209 22.8457 30.6 22.3889 30.6H8.61111C8.15435 30.6 7.7163 30.4209 7.39332 30.1021C7.07034 29.7833 6.88889 29.3509 6.88889 28.9V10.2H24.1111V28.9Z" fill="#9C9C9C"/>
</svg>
