<svg width="14" height="22" viewBox="0 0 14 22" fill="none" xmlns="http://www.w3.org/2000/svg">
<path id="Vector" d="M0.00157746 1.41024C0.000636188 1.59568 0.0395061 1.77944 0.115908 1.95072C0.192309 2.122 0.304703 2.27735 0.446492 2.40767L9.48635 10.8199L0.507163 19.2322C0.32234 19.4975 0.238572 19.8128 0.269286 20.1276C0.300001 20.4425 0.443418 20.7386 0.676553 20.9686C0.909686 21.1986 1.21904 21.349 1.55502 21.3959C1.891 21.4428 2.23416 21.3833 2.5295 21.227L12.6412 11.8174C12.9252 11.5527 13.0848 11.194 13.0848 10.8199C13.0848 10.4459 12.9252 10.0871 12.6412 9.8225L2.5295 0.41281C2.24511 0.148491 1.8596 2.71935e-05 1.45766 2.72111e-05C1.05572 2.72287e-05 0.670213 0.148491 0.38582 0.41281C0.121515 0.685185 -0.0165719 1.04364 0.00157746 1.41024Z" fill="#9C9C9C"/>
</svg>
