<svg width="30" height="30" viewBox="0 0 30 30" fill="none" xmlns="http://www.w3.org/2000/svg">
<path d="M7.86627 5.36625C8.10068 5.13191 8.41857 5.00027 8.75002 5.00027C9.08148 5.00027 9.39936 5.13191 9.63377 5.36625L14.6338 10.3662C14.8615 10.602 14.9875 10.9178 14.9846 11.2455C14.9818 11.5732 14.8503 11.8868 14.6185 12.1185C14.3868 12.3503 14.0733 12.4817 13.7455 12.4846C13.4178 12.4874 13.102 12.3614 12.8663 12.1337L10 9.2675V23.75C10 24.0815 9.86832 24.3995 9.6339 24.6339C9.39948 24.8683 9.08154 25 8.75002 25C8.4185 25 8.10056 24.8683 7.86614 24.6339C7.63172 24.3995 7.50002 24.0815 7.50002 23.75V9.2675L4.63377 12.1337C4.39802 12.3614 4.08226 12.4874 3.75452 12.4846C3.42677 12.4817 3.11326 12.3503 2.8815 12.1185C2.64974 11.8868 2.51828 11.5732 2.51543 11.2455C2.51258 10.9178 2.63857 10.602 2.86627 10.3662L7.86627 5.36625ZM20 20.7325V6.25C20 5.91848 20.1317 5.60054 20.3661 5.36612C20.6006 5.1317 20.9185 5 21.25 5C21.5815 5 21.8995 5.1317 22.1339 5.36612C22.3683 5.60054 22.5 5.91848 22.5 6.25V20.7325L25.3663 17.8662C25.602 17.6386 25.9178 17.5126 26.2455 17.5154C26.5733 17.5183 26.8868 17.6497 27.1185 17.8815C27.3503 18.1132 27.4818 18.4268 27.4846 18.7545C27.4875 19.0822 27.3615 19.398 27.1338 19.6337L22.1338 24.6337C21.8994 24.8681 21.5815 24.9997 21.25 24.9997C20.9186 24.9997 20.6007 24.8681 20.3663 24.6337L15.3663 19.6337C15.1386 19.398 15.0126 19.0822 15.0154 18.7545C15.0183 18.4268 15.1497 18.1132 15.3815 17.8815C15.6133 17.6497 15.9268 17.5183 16.2545 17.5154C16.5823 17.5126 16.898 17.6386 17.1338 17.8662L20 20.7325Z" fill="black"/>
</svg>
