<svg width="14" height="22" viewBox="0 0 14 22" fill="none" xmlns="http://www.w3.org/2000/svg">
<path id="Vector" d="M13.0832 20.0013C13.0841 19.8158 13.0453 19.6321 12.9689 19.4608C12.8925 19.2895 12.7801 19.1341 12.6383 19.0038L3.59843 10.5916L12.5776 2.17931C12.7624 1.91404 12.8462 1.59871 12.8155 1.28385C12.7848 0.968997 12.6414 0.672853 12.4082 0.442888C12.1751 0.212923 11.8657 0.0624516 11.5298 0.0155926C11.1938 -0.0312664 10.8506 0.0281997 10.5553 0.18446L0.44358 9.59415C0.159542 9.8588 -4.46623e-07 10.2175 -4.62972e-07 10.5916C-4.79322e-07 10.9656 0.159542 11.3244 0.44358 11.589L10.5553 20.9987C10.8397 21.263 11.2252 21.4115 11.6271 21.4115C12.0291 21.4115 12.4146 21.263 12.699 20.9987C12.9633 20.7263 13.1013 20.3679 13.0832 20.0013Z" fill="#9C9C9C"/>
</svg>
